<svg width="598" height="119" viewBox="0 0 598 119" xmlns="http://www.w3.org/2000/svg" xmlns:xlink="http://www.w3.org/1999/xlink" xmlns:figma="http://www.figma.com/figma/ns">
  <title>
    flow
  </title>
  <desc>
    Created using Figma
  </desc>
  <g figma:type="canvas">
    <g style="mix-blend-mode:normal" figma:type="frame">
      <g style="mix-blend-mode:normal" figma:type="vector" transform="translate(-12812 3408)">
        <use xlink:href="#a" transform="translate(12812 -3405.65)" fill="#47B9E8" style="mix-blend-mode:normal"/>
      </g>
      <g style="mix-blend-mode:normal" figma:type="vector" transform="translate(-12812 3408)">
        <use xlink:href="#b" transform="matrix(1 0 0 -1 12812 -3291.5)" fill="#47B9E8" style="mix-blend-mode:normal"/>
      </g>
    </g>
  </g>
  <defs>
    <path id="a" d="M171.5 16.86c1.9 0 3.23.46 4.2 1.15 1.12.8 1.78 1.7 2.42 3.2 1.32 3 1.8 7 2.33 11.5.52 4.3 1.12 9.1 2.98 12.7.93 1.8 2.38 3.6 4.15 4.8 1.75 1.1 4.2 1.8 6.92 1.8v-4c-2.16.1-3.52-.3-4.78-1.2-1.24-.7-2-1.7-2.72-3.2-1.48-2.9-2.03-6.9-2.58-11.3-.5-4.2-1.02-9-2.65-12.6-.83-1.8-2.14-3.6-3.77-4.8-1.75-1.2-3.9-1.8-6.5-1.8v4zM0 16.86h171.5v-4H0v4zM569.47-2c-2.78 0-5.04 1-6.78 2.75-1.7 1.7-2.8 4-3.6 6.5-1.6 4.94-2.1 11.44-2.6 17.7-.6 6.37-1.1 12.37-2.7 16.8-.8 2.2-1.6 3.73-2.9 4.87-1.2 1.03-2.6 1.64-4.5 1.64v4c2.9 0 5.3-.96 7.2-2.68 1.7-1.6 3.1-4 3.9-6.5 1.7-5 2.3-11.57 2.9-17.78.5-6.3 1-12.36 2.4-16.85.7-2.2 1.5-3.83 2.6-4.88 1-1 2.2-1.57 3.9-1.57v-4zM598-2h-28.53v4H598v-4zM194.5 51.86c114 0 237.98.4 351.97.4v-4c-114 0-237.98-.4-351.97-.4v4z"/>
    <path id="b" d="M171.5 2c1.72 0 2.96.57 3.94 1.56 1.05 1.05 1.9 2.66 2.6 4.85 1.42 4.5 1.87 10.5 2.4 16.8.53 6.2 1.12 12.7 2.9 17.7.88 2.5 2.24 4.9 3.97 6.5 1.9 1.7 4.3 2.7 7.2 2.7v-4c-1.9 0-3.3-.6-4.5-1.6-1.3-1.1-2.1-2.6-2.9-4.8-1.5-4.4-2.1-10.3-2.6-16.7-.5-6.2-1-12.7-2.6-17.6-.8-2.5-1.9-4.8-3.6-6.5-1.7-1.8-4-2.8-6.8-2.8v4zM0 2h171.5v-4H0v4zm569.47-3.86c-2.78 0-5.04 1-6.78 2.75-1.7 1.6-2.8 4-3.6 6.5-1.6 4.9-2.1 11.4-2.6 17.7-.6 6.3-1.1 12.3-2.7 16.7-.8 2.2-1.6 3.7-2.9 4.9-1.2 1-2.6 1.6-4.5 1.6v4c2.9 0 5.3-1 7.2-2.7 1.7-1.6 3.1-4 3.9-6.5 1.7-5 2.3-11.6 2.9-17.8.5-6.3 1-12.4 2.4-16.9.7-2.2 1.5-3.9 2.6-4.9 1-1 2.2-1.6 3.9-1.6v-4zm28.53 0h-28.53v4H598v-4zM194.5 52c114 0 237.98.4 351.97.4v-4c-114 0-237.98-.4-351.97-.4v4z"/>
  </defs>
</svg>
